<?xml version="1.0" encoding="UTF-8"?>
<svg width="21px" height="29px" viewBox="0 0 21 29" version="1.1" xmlns="http://www.w3.org/2000/svg" xmlns:xlink="http://www.w3.org/1999/xlink">
    <!-- Generator: Sketch 48.2 (47327) - http://www.bohemiancoding.com/sketch -->
    <title>placeholder</title>
    <desc>Created with Sketch.</desc>
    <defs></defs>
    <g id="home---map" stroke="none" stroke-width="1" fill="none" fill-rule="evenodd" transform="translate(-39.000000, -622.000000)">
        <g id="placeholder" transform="translate(39.000000, 623.000000)" fill="#0D2481">
            <path d="M10.5,13.2222222 C12.4305605,13.2222222 14,11.652082 14,9.72065958 C14,7.79173736 12.4305605,6.22222222 10.5,6.22222222 C8.56943949,6.22222222 7,7.79173736 7,9.72065958 C7,11.652082 8.56943949,13.2222222 10.5,13.2222222 Z M10.5,7.22043635 C11.8788825,7.22043635 12.9991075,8.34366164 12.9991075,9.72065958 C12.9991075,11.1001578 11.8788825,12.2208828 10.5,12.2208828 C9.12111746,12.2208828 8.00089254,11.1001578 8.00089254,9.72065958 C8.00089254,8.34366164 9.12111746,7.22043635 10.5,7.22043635 Z" id="Fill-1" stroke="#0D2481"></path>
            <g id="Group-5" stroke="#0A1F83">
                <path d="M10.4108958,27.6823264 L18.1673819,16.4798472 C21.0749583,12.6016042 20.6553472,6.2278125 17.2662292,2.84122222 C15.4348542,1.00984722 13.0006042,0 10.4108958,0 C7.82181944,0 5.38504167,1.00984722 3.55619444,2.83869444 C0.166444444,6.2278125 -0.255694444,12.6016042 2.64240278,16.4653125 L10.4108958,27.6823264 Z M4.26965972,3.5546875 C5.91081944,1.91542361 8.09102778,1.012375 10.4108958,1.012375 C12.7288681,1.012375 14.9109722,1.91542361 16.5502361,3.5546875 C19.6088472,6.61329861 19.98675,12.3696806 17.3452222,15.8902431 L10.4108958,25.9071944 L3.4645625,15.8750764 C0.835673611,12.3696806 1.21104861,6.61329861 4.26965972,3.5546875 Z" id="Fill-2"></path>
            </g>
        </g>
    </g>
</svg>