<?xml version="1.0" encoding="UTF-8"?>
<svg width="143px" height="28px" viewBox="0 0 143 28" version="1.1" xmlns="http://www.w3.org/2000/svg" xmlns:xlink="http://www.w3.org/1999/xlink">
    <!-- Generator: Sketch 48.2 (47327) - http://www.bohemiancoding.com/sketch -->
    <title>Artboard</title>
    <desc>Created with Sketch.</desc>
    <defs></defs>
    <g id="icons" stroke="none" stroke-width="1" fill="none" fill-rule="evenodd">
        <g id="Artboard" fill="#0D2481" fill-rule="nonzero">
            <g id="star-regular" transform="translate(119.500000, 21.000000) scale(-1, 1) translate(-119.500000, -21.000000) translate(112.000000, 14.000000)">
                <path d="M13.296102,4.54148191 L9.47293119,3.98070056 L7.76414917,0.494904793 C7.45798149,-0.126430404 6.57088026,-0.134328733 6.26209576,0.494904793 L4.55331375,3.98070056 L0.730142967,4.54148191 C0.0445367077,4.6415274 -0.23022916,5.49191414 0.266966219,5.97897775 L3.03294262,8.69073729 L2.37873817,12.5214268 C2.26098137,13.2138469 2.9858399,13.7325038 3.59294162,13.4086724 L7.01312247,11.5999551 L10.4333033,13.4086724 C11.040405,13.7298711 11.7652636,13.2138469 11.6475068,12.5214268 L10.9933023,8.69073729 L13.7592787,5.97897775 C14.2564741,5.49191414 13.9817082,4.6415274 13.296102,4.54148191 Z M9.68307966,8.23035502 L10.3056759,11.8661071 L7.04032922,10.1506836 L3.77498249,11.8661071 L4.39757877,8.23035502 L1.75482833,5.65590627 L5.40634236,5.12525459 L7.04032922,1.81524906 L8.67431607,5.12525459 L12.3258301,5.65590627 L9.68307966,8.23035502 Z" id="Shape"></path>
            </g>
            <g id="star-regular" transform="translate(119.500000, 7.000000) scale(-1, 1) translate(-119.500000, -7.000000) translate(112.000000, 0.000000)">
                <path d="M13.296102,4.54148191 L9.47293119,3.98070056 L7.76414917,0.494904793 C7.45798149,-0.126430404 6.57088026,-0.134328733 6.26209576,0.494904793 L4.55331375,3.98070056 L0.730142967,4.54148191 C0.0445367077,4.6415274 -0.23022916,5.49191414 0.266966219,5.97897775 L3.03294262,8.69073729 L2.37873817,12.5214268 C2.26098137,13.2138469 2.9858399,13.7325038 3.59294162,13.4086724 L7.01312247,11.5999551 L10.4333033,13.4086724 C11.040405,13.7298711 11.7652636,13.2138469 11.6475068,12.5214268 L10.9933023,8.69073729 L13.7592787,5.97897775 C14.2564741,5.49191414 13.9817082,4.6415274 13.296102,4.54148191 Z M9.68307966,8.23035502 L10.3056759,11.8661071 L7.04032922,10.1506836 L3.77498249,11.8661071 L4.39757877,8.23035502 L1.75482833,5.65590627 L5.40634236,5.12525459 L7.04032922,1.81524906 L8.67431607,5.12525459 L12.3258301,5.65590627 L9.68307966,8.23035502 Z" id="Shape"></path>
            </g>
            <g id="star-regular" transform="translate(105.500000, 7.000000) scale(-1, 1) translate(-105.500000, -7.000000) translate(98.000000, 0.000000)">
                <path d="M13.7370441,4.54148191 L9.78708452,3.98070056 L8.02163371,0.494904793 C7.70531251,-0.126430404 6.78879211,-0.134328733 6.46976731,0.494904793 L4.7043165,3.98070056 L0.754356892,4.54148191 C0.0460136903,4.6415274 -0.23786431,5.49191414 0.275819691,5.97897775 L3.1335249,8.69073729 L2.4576249,12.5214268 C2.3359629,13.2138469 3.0848601,13.7325038 3.7120953,13.4086724 L7.24570051,11.5999551 L10.7793057,13.4086724 C11.4065409,13.7298711 12.1554381,13.2138469 12.0337761,12.5214268 L11.3578761,8.69073729 L14.2155813,5.97897775 C14.7292653,5.49191414 14.4453873,4.6415274 13.7370441,4.54148191 Z M10.0042022,8.23035502 L10.6474458,11.8661071 L7.27380952,10.1506836 L3.90017324,11.8661071 L4.54341684,8.23035502 L1.81302416,5.65590627 L5.58563433,5.12525459 L7.27380952,1.81524906 L8.96198472,5.12525459 L12.7345949,5.65590627 L10.0042022,8.23035502 Z" id="Shape"></path>
            </g>
            <g id="star-regular" transform="translate(91.500000, 7.000000) scale(-1, 1) translate(-91.500000, -7.000000) translate(84.000000, 0.000000)">
                <path d="M13.7370441,4.54148191 L9.78708452,3.98070056 L8.02163371,0.494904793 C7.70531251,-0.126430404 6.78879211,-0.134328733 6.46976731,0.494904793 L4.7043165,3.98070056 L0.754356892,4.54148191 C0.0460136903,4.6415274 -0.23786431,5.49191414 0.275819691,5.97897775 L3.1335249,8.69073729 L2.4576249,12.5214268 C2.3359629,13.2138469 3.0848601,13.7325038 3.7120953,13.4086724 L7.24570051,11.5999551 L10.7793057,13.4086724 C11.4065409,13.7298711 12.1554381,13.2138469 12.0337761,12.5214268 L11.3578761,8.69073729 L14.2155813,5.97897775 C14.7292653,5.49191414 14.4453873,4.6415274 13.7370441,4.54148191 Z M10.0042022,8.23035502 L10.6474458,11.8661071 L7.27380952,10.1506836 L3.90017324,11.8661071 L4.54341684,8.23035502 L1.81302416,5.65590627 L5.58563433,5.12525459 L7.27380952,1.81524906 L8.96198472,5.12525459 L12.7345949,5.65590627 L10.0042022,8.23035502 Z" id="Shape"></path>
            </g>
            <g id="star-regular" transform="translate(77.500000, 7.000000) scale(-1, 1) translate(-77.500000, -7.000000) translate(70.000000, 0.000000)">
                <path d="M13.7370441,4.54148191 L9.78708452,3.98070056 L8.02163371,0.494904793 C7.70531251,-0.126430404 6.78879211,-0.134328733 6.46976731,0.494904793 L4.7043165,3.98070056 L0.754356892,4.54148191 C0.0460136903,4.6415274 -0.23786431,5.49191414 0.275819691,5.97897775 L3.1335249,8.69073729 L2.4576249,12.5214268 C2.3359629,13.2138469 3.0848601,13.7325038 3.7120953,13.4086724 L7.24570051,11.5999551 L10.7793057,13.4086724 C11.4065409,13.7298711 12.1554381,13.2138469 12.0337761,12.5214268 L11.3578761,8.69073729 L14.2155813,5.97897775 C14.7292653,5.49191414 14.4453873,4.6415274 13.7370441,4.54148191 Z M10.0042022,8.23035502 L10.6474458,11.8661071 L7.27380952,10.1506836 L3.90017324,11.8661071 L4.54341684,8.23035502 L1.81302416,5.65590627 L5.58563433,5.12525459 L7.27380952,1.81524906 L8.96198472,5.12525459 L12.7345949,5.65590627 L10.0042022,8.23035502 Z" id="Shape"></path>
            </g>
            <g id="star-regular" transform="translate(91.500000, 21.000000) scale(-1, 1) translate(-91.500000, -21.000000) translate(84.000000, 14.000000)">
                <path d="M13.7370441,4.54148191 L9.78708452,3.98070056 L8.02163371,0.494904793 C7.70531251,-0.126430404 6.78879211,-0.134328733 6.46976731,0.494904793 L4.7043165,3.98070056 L0.754356892,4.54148191 C0.0460136903,4.6415274 -0.23786431,5.49191414 0.275819691,5.97897775 L3.1335249,8.69073729 L2.4576249,12.5214268 C2.3359629,13.2138469 3.0848601,13.7325038 3.7120953,13.4086724 L7.24570051,11.5999551 L10.7793057,13.4086724 C11.4065409,13.7298711 12.1554381,13.2138469 12.0337761,12.5214268 L11.3578761,8.69073729 L14.2155813,5.97897775 C14.7292653,5.49191414 14.4453873,4.6415274 13.7370441,4.54148191 Z M10.0042022,8.23035502 L10.6474458,11.8661071 L7.27380952,10.1506836 L3.90017324,11.8661071 L4.54341684,8.23035502 L1.81302416,5.65590627 L5.58563433,5.12525459 L7.27380952,1.81524906 L8.96198472,5.12525459 L12.7345949,5.65590627 L10.0042022,8.23035502 Z" id="Shape"></path>
            </g>
            <g id="star-regular" transform="translate(105.500000, 21.000000) scale(-1, 1) translate(-105.500000, -21.000000) translate(98.000000, 14.000000)">
                <path d="M13.7370441,4.54148191 L9.78708452,3.98070056 L8.02163371,0.494904793 C7.70531251,-0.126430404 6.78879211,-0.134328733 6.46976731,0.494904793 L4.7043165,3.98070056 L0.754356892,4.54148191 C0.0460136903,4.6415274 -0.23786431,5.49191414 0.275819691,5.97897775 L3.1335249,8.69073729 L2.4576249,12.5214268 C2.3359629,13.2138469 3.0848601,13.7325038 3.7120953,13.4086724 L7.24570051,11.5999551 L10.7793057,13.4086724 C11.4065409,13.7298711 12.1554381,13.2138469 12.0337761,12.5214268 L11.3578761,8.69073729 L14.2155813,5.97897775 C14.7292653,5.49191414 14.4453873,4.6415274 13.7370441,4.54148191 Z M10.0042022,8.23035502 L10.6474458,11.8661071 L7.27380952,10.1506836 L3.90017324,11.8661071 L4.54341684,8.23035502 L1.81302416,5.65590627 L5.58563433,5.12525459 L7.27380952,1.81524906 L8.96198472,5.12525459 L12.7345949,5.65590627 L10.0042022,8.23035502 Z" id="Shape"></path>
            </g>
            <g id="star-regular" transform="translate(77.500000, 21.000000) scale(-1, 1) translate(-77.500000, -21.000000) translate(70.000000, 14.000000)">
                <path d="M13.7370441,4.54148191 L9.78708452,3.98070056 L8.02163371,0.494904793 C7.70531251,-0.126430404 6.78879211,-0.134328733 6.46976731,0.494904793 L4.7043165,3.98070056 L0.754356892,4.54148191 C0.0460136903,4.6415274 -0.23786431,5.49191414 0.275819691,5.97897775 L3.1335249,8.69073729 L2.4576249,12.5214268 C2.3359629,13.2138469 3.0848601,13.7325038 3.7120953,13.4086724 L7.24570051,11.5999551 L10.7793057,13.4086724 C11.4065409,13.7298711 12.1554381,13.2138469 12.0337761,12.5214268 L11.3578761,8.69073729 L14.2155813,5.97897775 C14.7292653,5.49191414 14.4453873,4.6415274 13.7370441,4.54148191 Z M10.0042022,8.23035502 L10.6474458,11.8661071 L7.27380952,10.1506836 L3.90017324,11.8661071 L4.54341684,8.23035502 L1.81302416,5.65590627 L5.58563433,5.12525459 L7.27380952,1.81524906 L8.96198472,5.12525459 L12.7345949,5.65590627 L10.0042022,8.23035502 Z" id="Shape"></path>
            </g>
            <g id="star-half-solid" transform="translate(57.000000, 14.000000)">
                <path d="M7.5375,0 C7.216875,0 6.89625,0.161328125 6.7303125,0.48671875 L4.89375,4.10703125 L0.7846875,4.68671875 C0.0478125,4.790625 -0.2475,5.67382812 0.286875,6.1796875 L3.2596875,8.99609375 L2.5565625,12.9746094 C2.43,13.6882812 3.2034375,14.2324219 3.8615625,13.8960937 L7.5375,12.0203125 L7.5375,0 Z" id="Shape"></path>
            </g>
            <g id="star-half-solid" transform="translate(57.000000, 14.000000)">
                <path d="M7.5375,0 C7.216875,0 6.89625,0.161328125 6.7303125,0.48671875 L4.89375,4.10703125 L0.7846875,4.68671875 C0.0478125,4.790625 -0.2475,5.67382812 0.286875,6.1796875 L3.2596875,8.99609375 L2.5565625,12.9746094 C2.43,13.6882812 3.2034375,14.2324219 3.8615625,13.8960937 L7.5375,12.0203125 L7.5375,0 Z" id="Shape"></path>
            </g>
            <g id="star-regular" transform="translate(64.500000, 21.000000) scale(-1, 1) translate(-64.500000, -21.000000) translate(57.000000, 14.000000)">
                <path d="M9.78708452,3.98070056 L8.02163371,0.494904793 C7.70531251,-0.126430404 6.78879211,-0.134328733 6.46976731,0.494904793 L4.7043165,3.98070056 L0.754356892,4.54148191 C0.0460136903,4.6415274 -0.23786431,5.49191414 0.275819691,5.97897775 L3.1335249,8.69073729 L2.4576249,12.5214268 C2.3359629,13.2138469 3.0848601,13.7325038 3.7120953,13.4086724 L7.24570051,11.8661071 L10.7793057,13.4086724 C11.4065409,13.7298711 12.1554381,13.2138469 12.0337761,12.5214268 L11.3578761,8.69073729 L14.2155813,5.97897775 C14.7292653,5.49191414 14.4453873,4.6415274 13.7370441,4.54148191 L9.78708452,3.98070056 Z M10.0042022,8.23035502 L10.6474458,11.8661071 L7.27380952,10.5750415 L3.90017324,11.8661071 L4.54341684,8.23035502 L1.81302416,5.65590627 L5.58563433,5.12525459 L7.27380952,1.81524906 L8.96198472,5.12525459 L12.7345949,5.65590627 L10.0042022,8.23035502 Z" id="Shape"></path>
            </g>
            <g id="star-solid-(1)" transform="translate(56.000000, 0.000000)">
                <path d="M6.51789883,0.512062257 L4.73929961,4.11828794 L0.759922179,4.69844358 C0.0463035019,4.80194553 -0.239688716,5.68171206 0.277821012,6.18560311 L3.15680934,8.99105058 L2.47587549,12.9540856 C2.35330739,13.670428 3.1077821,14.2070039 3.73968872,13.8719844 L7.29961089,12.0007782 L10.8595331,13.8719844 C11.4914397,14.2042802 12.2459144,13.670428 12.1233463,12.9540856 L11.4424125,8.99105058 L14.3214008,6.18560311 C14.8389105,5.68171206 14.5529183,4.80194553 13.8392996,4.69844358 L9.85992218,4.11828794 L8.08132296,0.512062257 C7.76264591,-0.1307393 6.83929961,-0.138910506 6.51789883,0.512062257 Z" id="Shape"></path>
            </g>
            <g id="star-solid-(1)" transform="translate(42.000000, 0.000000)">
                <path d="M6.51789883,0.512062257 L4.73929961,4.11828794 L0.759922179,4.69844358 C0.0463035019,4.80194553 -0.239688716,5.68171206 0.277821012,6.18560311 L3.15680934,8.99105058 L2.47587549,12.9540856 C2.35330739,13.670428 3.1077821,14.2070039 3.73968872,13.8719844 L7.29961089,12.0007782 L10.8595331,13.8719844 C11.4914397,14.2042802 12.2459144,13.670428 12.1233463,12.9540856 L11.4424125,8.99105058 L14.3214008,6.18560311 C14.8389105,5.68171206 14.5529183,4.80194553 13.8392996,4.69844358 L9.85992218,4.11828794 L8.08132296,0.512062257 C7.76264591,-0.1307393 6.83929961,-0.138910506 6.51789883,0.512062257 Z" id="Shape"></path>
            </g>
            <g id="star-solid-(1)" transform="translate(28.000000, 0.000000)">
                <path d="M6.51789883,0.512062257 L4.73929961,4.11828794 L0.759922179,4.69844358 C0.0463035019,4.80194553 -0.239688716,5.68171206 0.277821012,6.18560311 L3.15680934,8.99105058 L2.47587549,12.9540856 C2.35330739,13.670428 3.1077821,14.2070039 3.73968872,13.8719844 L7.29961089,12.0007782 L10.8595331,13.8719844 C11.4914397,14.2042802 12.2459144,13.670428 12.1233463,12.9540856 L11.4424125,8.99105058 L14.3214008,6.18560311 C14.8389105,5.68171206 14.5529183,4.80194553 13.8392996,4.69844358 L9.85992218,4.11828794 L8.08132296,0.512062257 C7.76264591,-0.1307393 6.83929961,-0.138910506 6.51789883,0.512062257 Z" id="Shape"></path>
            </g>
            <g id="star-solid-(1)" transform="translate(14.000000, 0.000000)">
                <path d="M6.51789883,0.512062257 L4.73929961,4.11828794 L0.759922179,4.69844358 C0.0463035019,4.80194553 -0.239688716,5.68171206 0.277821012,6.18560311 L3.15680934,8.99105058 L2.47587549,12.9540856 C2.35330739,13.670428 3.1077821,14.2070039 3.73968872,13.8719844 L7.29961089,12.0007782 L10.8595331,13.8719844 C11.4914397,14.2042802 12.2459144,13.670428 12.1233463,12.9540856 L11.4424125,8.99105058 L14.3214008,6.18560311 C14.8389105,5.68171206 14.5529183,4.80194553 13.8392996,4.69844358 L9.85992218,4.11828794 L8.08132296,0.512062257 C7.76264591,-0.1307393 6.83929961,-0.138910506 6.51789883,0.512062257 Z" id="Shape"></path>
            </g>
            <g id="star-solid-(1)">
                <path d="M6.51789883,0.512062257 L4.73929961,4.11828794 L0.759922179,4.69844358 C0.0463035019,4.80194553 -0.239688716,5.68171206 0.277821012,6.18560311 L3.15680934,8.99105058 L2.47587549,12.9540856 C2.35330739,13.670428 3.1077821,14.2070039 3.73968872,13.8719844 L7.29961089,12.0007782 L10.8595331,13.8719844 C11.4914397,14.2042802 12.2459144,13.670428 12.1233463,12.9540856 L11.4424125,8.99105058 L14.3214008,6.18560311 C14.8389105,5.68171206 14.5529183,4.80194553 13.8392996,4.69844358 L9.85992218,4.11828794 L8.08132296,0.512062257 C7.76264591,-0.1307393 6.83929961,-0.138910506 6.51789883,0.512062257 Z" id="Shape"></path>
            </g>
            <g id="star-solid-(1)" transform="translate(42.000000, 14.000000)">
                <path d="M6.51789883,0.512093496 L4.73929961,4.11855138 L0.759922179,4.69874437 C0.0463035019,4.80225298 -0.239688716,5.68207617 0.277821012,6.18599966 L3.15680934,8.99162777 L2.47587549,12.954918 C2.35330739,13.6713065 3.1077821,14.2079169 3.73968872,13.8728759 L7.29961089,12.0015492 L10.8595331,13.8728759 C11.4914397,14.205193 12.2459144,13.6713065 12.1233463,12.954918 L11.4424125,8.99162777 L14.3214008,6.18599966 C14.8389105,5.68207617 14.5529183,4.80225298 13.8392996,4.69874437 L9.85992218,4.11855138 L8.08132296,0.512093496 C7.76264591,-0.130749449 6.83929961,-0.138921182 6.51789883,0.512093496 Z" id="Shape"></path>
            </g>
            <g id="star-solid-(1)" transform="translate(28.000000, 14.000000)">
                <path d="M6.51789883,0.512093496 L4.73929961,4.11855138 L0.759922179,4.69874437 C0.0463035019,4.80225298 -0.239688716,5.68207617 0.277821012,6.18599966 L3.15680934,8.99162777 L2.47587549,12.954918 C2.35330739,13.6713065 3.1077821,14.2079169 3.73968872,13.8728759 L7.29961089,12.0015492 L10.8595331,13.8728759 C11.4914397,14.205193 12.2459144,13.6713065 12.1233463,12.954918 L11.4424125,8.99162777 L14.3214008,6.18599966 C14.8389105,5.68207617 14.5529183,4.80225298 13.8392996,4.69874437 L9.85992218,4.11855138 L8.08132296,0.512093496 C7.76264591,-0.130749449 6.83929961,-0.138921182 6.51789883,0.512093496 Z" id="Shape"></path>
            </g>
            <g id="star-solid-(1)" transform="translate(14.000000, 14.000000)">
                <path d="M6.51789883,0.512093496 L4.73929961,4.11855138 L0.759922179,4.69874437 C0.0463035019,4.80225298 -0.239688716,5.68207617 0.277821012,6.18599966 L3.15680934,8.99162777 L2.47587549,12.954918 C2.35330739,13.6713065 3.1077821,14.2079169 3.73968872,13.8728759 L7.29961089,12.0015492 L10.8595331,13.8728759 C11.4914397,14.205193 12.2459144,13.6713065 12.1233463,12.954918 L11.4424125,8.99162777 L14.3214008,6.18599966 C14.8389105,5.68207617 14.5529183,4.80225298 13.8392996,4.69874437 L9.85992218,4.11855138 L8.08132296,0.512093496 C7.76264591,-0.130749449 6.83929961,-0.138921182 6.51789883,0.512093496 Z" id="Shape"></path>
            </g>
            <g id="star-solid-(1)" transform="translate(0.000000, 14.000000)">
                <path d="M6.51789883,0.512093496 L4.73929961,4.11855138 L0.759922179,4.69874437 C0.0463035019,4.80225298 -0.239688716,5.68207617 0.277821012,6.18599966 L3.15680934,8.99162777 L2.47587549,12.954918 C2.35330739,13.6713065 3.1077821,14.2079169 3.73968872,13.8728759 L7.29961089,12.0015492 L10.8595331,13.8728759 C11.4914397,14.205193 12.2459144,13.6713065 12.1233463,12.954918 L11.4424125,8.99162777 L14.3214008,6.18599966 C14.8389105,5.68207617 14.5529183,4.80225298 13.8392996,4.69874437 L9.85992218,4.11855138 L8.08132296,0.512093496 C7.76264591,-0.130749449 6.83929961,-0.138921182 6.51789883,0.512093496 Z" id="Shape"></path>
            </g>
            <g id="star-regular" transform="translate(133.500000, 7.000000) scale(-1, 1) translate(-133.500000, -7.000000) translate(126.000000, 0.000000)">
                <path d="M13.296102,4.54148191 L9.47293119,3.98070056 L7.76414917,0.494904793 C7.45798149,-0.126430404 6.57088026,-0.134328733 6.26209576,0.494904793 L4.55331375,3.98070056 L0.730142967,4.54148191 C0.0445367077,4.6415274 -0.23022916,5.49191414 0.266966219,5.97897775 L3.03294262,8.69073729 L2.37873817,12.5214268 C2.26098137,13.2138469 2.9858399,13.7325038 3.59294162,13.4086724 L7.01312247,11.5999551 L10.4333033,13.4086724 C11.040405,13.7298711 11.7652636,13.2138469 11.6475068,12.5214268 L10.9933023,8.69073729 L13.7592787,5.97897775 C14.2564741,5.49191414 13.9817082,4.6415274 13.296102,4.54148191 Z M9.68307966,8.23035502 L10.3056759,11.8661071 L7.04032922,10.1506836 L3.77498249,11.8661071 L4.39757877,8.23035502 L1.75482833,5.65590627 L5.40634236,5.12525459 L7.04032922,1.81524906 L8.67431607,5.12525459 L12.3258301,5.65590627 L9.68307966,8.23035502 Z" id="Shape"></path>
            </g>
        </g>
    </g>
</svg>